<?xml version="1.0" standalone="no"?>
<!DOCTYPE svg PUBLIC "-//W3C//DTD SVG 20010904//EN"
 "http://www.w3.org/TR/2001/REC-SVG-20010904/DTD/svg10.dtd">
<svg version="1.0" xmlns="http://www.w3.org/2000/svg"
 width="746.000000pt" height="729.000000pt" viewBox="0 0 746.000000 729.000000"
 preserveAspectRatio="xMidYMid meet">

<g transform="translate(0.000000,729.000000) scale(0.100000,-0.100000)"
fill="#000000" stroke="none">
<path d="M795 7096 c-54 -25 -100 -76 -121 -135 -11 -29 -13 -489 -14 -2328
l0 -2293 -157 0 c-139 0 -162 -2 -190 -20 -52 -31 -55 -59 -51 -405 4 -291 6
-314 27 -380 69 -211 211 -368 403 -444 107 -43 177 -51 481 -51 l267 0 0
-147 c0 -153 9 -202 48 -280 30 -59 131 -147 199 -175 l58 -23 1960 -3 c1173
-1 1991 1 2038 7 137 16 233 79 310 203 47 75 47 80 47 1140 l0 998 23 5 c12
2 51 9 87 15 142 24 298 64 360 91 123 56 214 174 240 309 6 29 10 127 10 219
0 91 3 236 7 322 l6 156 110 47 c61 25 112 44 114 42 2 -2 7 -82 10 -177 6
-180 14 -218 52 -239 29 -15 93 -12 119 6 50 35 52 49 45 374 l-6 301 -28 42
c-15 24 -39 53 -52 65 -14 13 -265 137 -558 276 l-534 253 -5 814 c-4 621 -8
821 -18 842 -23 53 -65 98 -116 125 l-51 27 -272 3 -273 3 0 118 c0 65 -5 133
-12 152 -20 60 -68 117 -122 144 l-50 25 -2170 0 -2171 0 -50 -24z m4352
-1216 l3 -1015 -518 -220 c-417 -177 -525 -227 -558 -257 -89 -81 -84 -219 10
-294 19 -15 103 -60 188 -100 l153 -72 -3 -353 c-4 -338 -3 -357 17 -419 29
-87 84 -166 151 -213 63 -44 218 -95 398 -133 64 -13 127 -26 140 -29 l22 -5
0 -539 c0 -324 -4 -560 -10 -592 -47 -246 -294 -418 -510 -355 -71 21 -168 84
-214 141 -54 65 -95 160 -106 246 -5 40 -10 193 -10 339 0 286 -1 290 -57 319
-16 8 -482 11 -1692 11 l-1671 0 0 2280 0 2280 2133 -2 2132 -3 2 -1015z m721
568 c9 -9 12 -187 12 -740 0 -400 -2 -728 -5 -728 -3 0 -45 18 -94 40 -129 58
-134 58 -373 -44 l-38 -16 0 750 0 750 243 0 c176 0 246 -3 255 -12z m466
-1933 c372 -176 672 -322 668 -326 -4 -3 -90 -41 -192 -84 -102 -43 -410 -174
-686 -292 l-501 -214 -524 248 c-288 137 -596 282 -684 323 l-160 75 695 297
c382 164 698 296 702 295 4 -1 311 -146 682 -322z m-1233 -915 c244 -116 461
-215 483 -220 22 -5 54 -6 70 -3 17 4 238 95 491 203 253 109 461 197 462 196
1 -1 -2 -132 -6 -291 -8 -314 -9 -321 -68 -377 -38 -36 -77 -51 -213 -82 -496
-110 -994 -98 -1460 36 -128 37 -153 51 -191 107 l-29 44 0 207 c0 180 8 390
15 390 2 0 202 -95 446 -210z m779 -1850 l0 -976 -22 -44 c-27 -52 -60 -78
-114 -90 -23 -6 -856 -10 -1993 -10 -1925 0 -1955 0 -1995 20 -25 12 -52 36
-69 62 -26 41 -27 46 -27 185 l0 143 1558 0 c1541 0 1558 0 1632 21 132 36
215 84 311 179 95 94 134 155 176 275 l27 80 4 572 3 573 162 -7 c89 -3 197
-3 240 1 l77 8 1 41 0 42 14 -50 c12 -41 14 -225 15 -1025z m-1790 123 c0
-274 8 -329 60 -439 17 -34 48 -86 70 -116 l40 -53 -1662 -3 c-1174 -2 -1683
1 -1730 8 -193 32 -351 191 -378 382 -5 35 -10 154 -10 266 l0 202 1805 0
1805 0 0 -247z"/>
<path d="M1821 6598 c-26 -18 -66 -84 -187 -308 -85 -157 -163 -309 -174 -338
-20 -52 -20 -76 -20 -1441 0 -1363 0 -1389 20 -1446 44 -127 114 -208 230
-264 66 -32 86 -36 167 -39 68 -3 106 1 145 13 141 46 245 150 296 293 15 43
17 167 19 1416 3 1191 2 1376 -12 1427 -17 67 -322 644 -359 678 -36 34 -84
37 -125 9z m177 -542 l97 -181 3 -1062 2 -1063 -220 0 -220 0 0 1061 0 1061
107 200 c95 177 108 198 120 182 7 -10 57 -99 111 -198z m102 -2704 c0 -185
-9 -236 -55 -295 -71 -94 -229 -104 -319 -19 -58 55 -66 88 -66 295 l0 187
220 0 220 0 0 -168z"/>
<path d="M2692 6364 c-59 -41 -64 -119 -11 -170 l30 -29 457 -3 c314 -2 469 0
495 8 45 13 77 58 77 109 0 24 -9 42 -34 67 l-34 34 -479 0 c-417 0 -481 -2
-501 -16z"/>
<path d="M2678 5691 c-28 -25 -33 -36 -33 -76 0 -40 5 -51 32 -75 20 -18 48
-31 75 -35 24 -3 239 -5 478 -3 396 3 437 5 461 21 64 43 64 133 -1 184 -11 9
-134 12 -497 13 l-483 0 -32 -29z"/>
<path d="M2725 5063 c-32 -8 -74 -54 -81 -89 -4 -20 0 -43 10 -62 33 -64 13
-62 539 -62 l479 0 34 34 c39 39 44 77 18 127 -30 58 -39 59 -531 58 -246 -1
-457 -3 -468 -6z"/>
<path d="M2703 4394 c-46 -23 -69 -76 -54 -125 6 -21 23 -47 38 -58 25 -21 37
-21 505 -21 l480 0 34 34 c39 39 44 77 18 127 -30 58 -39 59 -536 59 -391 0
-457 -3 -485 -16z"/>
<path d="M2694 3731 c-42 -26 -60 -78 -44 -127 7 -21 24 -43 44 -55 29 -18 55
-19 503 -19 l471 0 31 26 c57 47 50 137 -13 175 -29 18 -59 19 -496 19 -441 0
-467 -1 -496 -19z"/>
<path d="M2693 3071 c-44 -28 -61 -83 -40 -133 29 -70 20 -69 552 -66 l475 3
27 28 c23 23 28 36 28 77 0 41 -5 54 -28 77 l-27 28 -478 3 c-459 2 -478 2
-509 -17z"/>
</g>
</svg>
