<?xml version="1.0" standalone="no"?>
<!DOCTYPE svg PUBLIC "-//W3C//DTD SVG 20010904//EN"
 "http://www.w3.org/TR/2001/REC-SVG-20010904/DTD/svg10.dtd">
<svg version="1.0" xmlns="http://www.w3.org/2000/svg"
 width="1279.000000pt" height="960.000000pt" viewBox="0 0 1279.000000 960.000000"
 preserveAspectRatio="xMidYMid meet">
<metadata>
Created by potrace 1.16, written by Peter Selinger 2001-2019
</metadata>
<g transform="translate(0.000000,960.000000) scale(0.100000,-0.100000)"
fill="#000000" stroke="none">
<path d="M6165 8734 c-506 -75 -856 -311 -1238 -836 -249 -342 -482 -768 -912
-1663 -518 -1079 -843 -1610 -1227 -2003 -326 -335 -647 -513 -1083 -602 -121
-25 -164 -51 -200 -123 -73 -148 26 -316 188 -317 53 0 227 36 362 75 550 159
1003 515 1441 1132 278 391 516 821 952 1724 426 880 618 1225 868 1558 103
137 276 316 383 397 349 262 808 306 1196 114 238 -118 467 -346 704 -702 202
-303 382 -640 721 -1344 474 -983 722 -1426 1030 -1839 349 -470 714 -778
1123 -949 204 -86 503 -166 615 -166 161 1 260 169 187 317 -38 75 -78 98
-226 129 -694 143 -1186 580 -1742 1546 -155 269 -313 576 -546 1059 -361 752
-531 1075 -726 1385 -412 656 -793 978 -1283 1085 -80 17 -138 22 -327 24
-126 2 -243 1 -260 -1z"/>
<path d="M6295 7443 c-51 -26 -94 -74 -110 -123 -13 -41 -15 -324 -13 -2545
l3 -2500 28 -47 c40 -69 102 -103 187 -103 90 1 155 40 198 120 16 28 17 224
20 2530 2 2761 7 2558 -61 2622 -17 17 -46 38 -64 47 -42 21 -148 21 -188 -1z"/>
<path d="M4605 5105 c-48 -19 -90 -57 -118 -110 l-22 -40 0 -1335 0 -1335 22
-41 c80 -150 280 -164 378 -26 l30 44 0 1358 0 1358 -30 44 c-57 80 -171 116
-260 83z"/>
<path d="M8028 5106 c-57 -20 -85 -42 -116 -88 l-27 -42 0 -1357 0 -1357 30
-44 c96 -135 301 -123 375 23 20 37 20 65 20 1379 0 1300 -1 1342 -19 1378
-51 99 -162 144 -263 108z"/>
<path d="M2885 3071 c-50 -22 -101 -79 -115 -128 -8 -25 -10 -145 -8 -360 l3
-321 30 -44 c96 -136 301 -123 376 23 19 38 20 56 17 378 l-3 338 -29 41 c-56
82 -179 115 -271 73z"/>
<path d="M9703 3065 c-32 -16 -61 -41 -79 -67 l-29 -41 -3 -338 c-3 -321 -2
-340 17 -377 75 -148 279 -161 376 -24 l30 44 3 321 c4 352 1 375 -51 434 -66
75 -171 94 -264 48z"/>
<path d="M1605 1686 c-168 -75 -164 -329 7 -400 34 -14 515 -16 4778 -16 4263
0 4744 2 4778 16 155 64 178 285 40 380 l-41 29 -4766 2 c-3950 2 -4771 0
-4796 -11z"/>
</g>
</svg>
