<?xml version="1.0" encoding="UTF-8"?>
<svg width="700pt" height="700pt" version="1.1" viewBox="0 0 700 700" xmlns="http://www.w3.org/2000/svg" xmlns:xlink="http://www.w3.org/1999/xlink">
 <defs>
  <symbol id="a" overflow="visible">
   <path d="m39.078-2.3281c-2.0117 1.043-4.1094 1.8281-6.2969 2.3594s-4.4648 0.79688-6.8281 0.79688c-7.0859 0-12.699-1.9766-16.844-5.9375-4.1367-3.957-6.2031-9.3281-6.2031-16.109 0-6.7891 2.0664-12.164 6.2031-16.125 4.1445-3.9688 9.7578-5.9531 16.844-5.9531 2.3633 0 4.6406 0.26562 6.8281 0.79688s4.2852 1.3242 6.2969 2.375v8.7969c-2.0312-1.3828-4.0391-2.3984-6.0156-3.0469-1.9688-0.64453-4.0469-0.96875-6.2344-0.96875-3.9062 0-6.9844 1.2578-9.2344 3.7656-2.2422 2.5-3.3594 5.9531-3.3594 10.359 0 4.3867 1.1172 7.8359 3.3594 10.344 2.25 2.5 5.3281 3.75 9.2344 3.75 2.1875 0 4.2656-0.32031 6.2344-0.96875 1.9766-0.64453 3.9844-1.6602 6.0156-3.0469z"/>
  </symbol>
  <symbol id="h" overflow="visible">
   <path d="m16.031-40.953v9.0625h10.516v7.2812h-10.516v13.531c0 1.4805 0.28906 2.4805 0.875 3 0.59375 0.52344 1.7656 0.78125 3.5156 0.78125h5.2344v7.2969h-8.7344c-4.0312 0-6.8867-0.83594-8.5625-2.5156-1.6797-1.6875-2.5156-4.5391-2.5156-8.5625v-13.531h-5.0781v-7.2812h5.0781v-9.0625z"/>
  </symbol>
  <symbol id="g" overflow="visible">
   <path d="m26.594-27.234v-17.078h10.266v44.312h-10.266v-4.6094c-1.3984 1.875-2.9453 3.25-4.6406 4.125-1.6875 0.875-3.6406 1.3125-5.8594 1.3125-3.9297 0-7.1562-1.5625-9.6875-4.6875-2.5234-3.125-3.7812-7.1445-3.7812-12.062 0-4.9141 1.2578-8.9375 3.7812-12.062 2.5312-3.125 5.7578-4.6875 9.6875-4.6875 2.1953 0 4.1445 0.44531 5.8438 1.3281 1.707 0.88672 3.2578 2.2578 4.6562 4.1094zm-6.7188 20.656c2.1875 0 3.8516-0.79688 5-2.3906 1.1445-1.5938 1.7188-3.9102 1.7188-6.9531 0-3.0391-0.57422-5.3594-1.7188-6.9531-1.1484-1.5938-2.8125-2.3906-5-2.3906-2.168 0-3.8242 0.79688-4.9688 2.3906-1.1484 1.5938-1.7188 3.9141-1.7188 6.9531 0 3.043 0.57031 5.3594 1.7188 6.9531 1.1445 1.5938 2.8008 2.3906 4.9688 2.3906z"/>
  </symbol>
  <symbol id="f" overflow="visible">
   <path d="m21.875-6.5781c2.1758 0 3.8359-0.79688 4.9844-2.3906 1.1562-1.5938 1.7344-3.9102 1.7344-6.9531 0-3.0391-0.57812-5.3594-1.7344-6.9531-1.1484-1.5938-2.8086-2.3906-4.9844-2.3906-2.1875 0-3.8672 0.80469-5.0312 2.4062-1.168 1.6055-1.75 3.918-1.75 6.9375 0 3.0234 0.58203 5.3359 1.75 6.9375 1.1641 1.6055 2.8438 2.4062 5.0312 2.4062zm-6.7812-20.656c1.4062-1.8516 2.9609-3.2227 4.6719-4.1094 1.707-0.88281 3.6719-1.3281 5.8906-1.3281 3.9375 0 7.1641 1.5625 9.6875 4.6875 2.5195 3.125 3.7812 7.1484 3.7812 12.062 0 4.918-1.2617 8.9375-3.7812 12.062-2.5234 3.125-5.75 4.6875-9.6875 4.6875-2.2188 0-4.1836-0.44531-5.8906-1.3281-1.7109-0.88281-3.2656-2.2539-4.6719-4.1094v4.6094h-10.188v-44.312h10.188z"/>
  </symbol>
  <symbol id="e" overflow="visible">
   <path d="m36.734-16.031v2.9062h-23.828c0.23828 2.3867 1.0977 4.1797 2.5781 5.375 1.4883 1.1992 3.5625 1.7969 6.2188 1.7969 2.1445 0 4.3438-0.31641 6.5938-0.95312 2.25-0.63281 4.5625-1.5977 6.9375-2.8906v7.8594c-2.418 0.91797-4.8359 1.6055-7.25 2.0625-2.4062 0.46875-4.8125 0.70312-7.2188 0.70312-5.7734 0-10.262-1.4609-13.469-4.3906-3.1992-2.9375-4.7969-7.0547-4.7969-12.359 0-5.1953 1.5703-9.2852 4.7188-12.266 3.1445-2.9883 7.4688-4.4844 12.969-4.4844 5.0195 0 9.0312 1.5117 12.031 4.5312 3.0078 3.0234 4.5156 7.0586 4.5156 12.109zm-10.469-3.3906c0-1.9375-0.57031-3.5-1.7031-4.6875-1.125-1.1875-2.6016-1.7812-4.4219-1.7812-1.9805 0-3.5898 0.55859-4.8281 1.6719-1.2305 1.1055-1.9961 2.7031-2.2969 4.7969zm-1.6562-27.234h8.0625l-10.5 10.719h-5.5938z"/>
  </symbol>
  <symbol id="d" overflow="visible">
   <path d="m4.9062-31.891h10.188v31.891h-10.188zm0-12.422h10.188v8.3125h-10.188z"/>
  </symbol>
  <symbol id="c" overflow="visible">
   <path d="m4.9062-44.312h10.188v44.312h-10.188z"/>
  </symbol>
  <symbol id="b" overflow="visible">
   <path d="m5.3594-42.516h10.953v34.234h19.266v8.2812h-30.219z"/>
  </symbol>
 </defs>
 <g>
  <path d="m606.67 455c6.4414 0 11.664 5.2227 11.664 11.668 0 5.9805-4.5039 10.914-10.305 11.586l-1.3594 0.078125h-513.34c-6.4414 0-11.664-5.2227-11.664-11.664 0-5.9844 4.5039-10.914 10.305-11.59l1.3594-0.078125zm-256.67-315c5.9844 0 10.914 4.5039 11.59 10.305l0.078125 1.3633v268.33c0 6.4414-5.2266 11.668-11.668 11.668-5.9844 0-10.914-4.5039-11.59-10.309l-0.078125-1.3594v-268.33c0-6.4453 5.2266-11.668 11.668-11.668zm93.332 128.33c5.9844 0 10.914 4.5039 11.59 10.309l0.078125 1.3594v140c0 6.4414-5.2227 11.668-11.668 11.668-5.9805 0-10.914-4.5039-11.586-10.309l-0.078125-1.3594v-140c0-6.4414 5.2227-11.668 11.664-11.668zm93.336 110.84c5.9805 0 10.914 4.5039 11.586 10.305l0.078125 1.3594v29.168c0 6.4414-5.2227 11.668-11.664 11.668-5.9844 0-10.914-4.5039-11.59-10.309l-0.078125-1.3594v-29.168c0-6.4414 5.2227-11.664 11.668-11.664zm-373.34 0c5.9844 0 10.914 4.5039 11.59 10.305l0.078125 1.3594v29.168c0 6.4414-5.2227 11.668-11.668 11.668-5.9805 0-10.914-4.5039-11.586-10.309l-0.078125-1.3594v-29.168c0-6.4414 5.2227-11.664 11.664-11.664zm93.336-110.84c5.9805 0 10.914 4.5039 11.586 10.309l0.078125 1.3594v140c0 6.4414-5.2227 11.668-11.664 11.668-5.9844 0-10.914-4.5039-11.59-10.309l-0.078125-1.3594v-140c0-6.4414 5.2227-11.668 11.668-11.668zm93.332-198.33c42.871 0 69.727 23.543 101.5 81.23l4.1758 7.7188c0.69922 1.3203 1.4023 2.6562 2.1094 4.0078l4.2773 8.3086 4.3594 8.7109c0.73047 1.4883 1.4688 2.9883 2.2109 4.5078l15.84 32.949 4.7031 9.6133c0.77734 1.5703 1.5508 3.1172 2.3203 4.6523l4.582 8.9922c0.75781 1.4648 1.5117 2.9141 2.2617 4.3438l4.4805 8.3867c0.74219 1.3672 1.4844 2.7148 2.2188 4.0469l4.4062 7.7969c30.676 53.223 58.508 78.125 99.141 84.895 6.3555 1.0586 10.652 7.0664 9.5938 13.422-1.0586 6.3555-7.0703 10.652-13.426 9.5938-51.422-8.5664-84.098-39.352-119.81-103.8l-4.6758-8.5977c-0.78516-1.4648-1.5703-2.9453-2.3555-4.4453l-4.75-9.1797-4.8086-9.5781-7.0625-14.504-13.57-28.238-4.1953-8.4922-4.0898-8.0703-4-7.6562c-0.65625-1.2422-1.3125-2.4648-1.9648-3.6758l-3.875-7.043-3.8047-6.6484c-3.7695-6.4492-7.4492-12.312-11.082-17.621l-3.6133-5.1211c-19.215-26.348-37.434-37.168-61.09-37.168-28.098 0-48.531 15.266-72.074 53.68l-3.7461 6.2578c-1.2578 2.1523-2.5273 4.3672-3.8047 6.6484l-3.8789 7.0508c-0.65234 1.207-1.3086 2.4336-1.9688 3.6758l-4 7.6602c-0.67188 1.3086-1.3516 2.6367-2.0352 3.9844l-4.1445 8.2852-17.844 37.02c-2.4609 5.0898-4.8945 10.027-7.3008 14.816l-4.7773 9.3828c-39.586 76.516-73.312 112.07-129.18 121.38-6.3555 1.0586-12.367-3.2344-13.426-9.5898-1.0586-6.3555 3.2344-12.367 9.5898-13.426 41.574-6.9297 69.742-32.863 101.3-88.742l4.4258-7.9922 4.4805-8.3906 4.5469-8.7891c0.76562-1.5 1.5312-3.0156 2.3008-4.5469l4.6602-9.4062 15.949-33.152 4.4531-9.1211 4.3633-8.7148c0.71875-1.418 1.4375-2.8203 2.1484-4.207l4.2422-8.1133c0.70313-1.3203 1.4023-2.625 2.0977-3.9102l4.1445-7.5273c3.4336-6.1133 6.8164-11.824 10.168-17.148l4.0156-6.2031c25.371-38.125 49.863-54.195 85.285-54.195z"/>
  <use x="70" y="735" xlink:href="#a"/>
  <use x="220.503906" y="735" xlink:href="#h"/>
  <use x="287.953125" y="735" xlink:href="#g"/>
  <use x="350.015625" y="735" xlink:href="#f"/>
  <use x="450.105469" y="735" xlink:href="#a"/>
  <use x="492.917969" y="735" xlink:href="#e"/>
  <use x="567.058594" y="735" xlink:href="#d"/>
  <use x="587.054688" y="735" xlink:href="#c"/>
  <use x="666.917969" y="735" xlink:href="#b"/>
 </g>
</svg>
