<?xml version="1.0" standalone="no"?>
<!DOCTYPE svg PUBLIC "-//W3C//DTD SVG 20010904//EN"
 "http://www.w3.org/TR/2001/REC-SVG-20010904/DTD/svg10.dtd">
<svg version="1.0" xmlns="http://www.w3.org/2000/svg"
 width="736.000000pt" height="711.000000pt" viewBox="0 0 736.000000 711.000000"
 preserveAspectRatio="xMidYMid meet">

<g transform="translate(0.000000,711.000000) scale(0.100000,-0.100000)"
fill="#000000" stroke="none">
<path d="M3495 5929 c-353 -46 -659 -269 -937 -681 -65 -98 -188 -298 -218
-359 l-20 -39 -594 -2 c-583 -3 -595 -3 -622 -24 -51 -38 -69 -71 -69 -129 0
-44 5 -59 31 -91 16 -21 46 -43 65 -50 25 -9 160 -13 527 -13 270 -1 492 -3
492 -5 0 -10 -342 -712 -425 -874 -372 -720 -707 -1131 -1075 -1317 -92 -47
-250 -102 -355 -124 -55 -12 -111 -30 -125 -40 -118 -85 -77 -262 65 -278 53
-7 218 28 348 74 566 196 987 672 1490 1686 69 139 206 416 305 617 313 636
468 879 696 1098 107 102 194 158 312 201 194 71 444 64 626 -17 175 -77 367
-261 536 -515 159 -238 284 -470 570 -1062 270 -560 406 -810 598 -1100 272
-413 531 -663 847 -822 185 -93 456 -171 552 -161 142 16 183 193 64 280 -13
9 -68 27 -121 38 -434 93 -745 333 -1078 830 -195 293 -315 516 -659 1230
-319 662 -536 1019 -771 1272 l-71 77 480 3 c469 3 480 3 508 24 52 39 75 83
70 137 -4 51 -26 88 -71 121 -27 21 -35 21 -964 22 -515 1 -968 -2 -1007 -7z"/>
<path d="M5775 5917 c-47 -26 -75 -76 -75 -132 0 -56 28 -106 75 -132 35 -20
54 -23 155 -23 101 0 120 3 154 23 101 58 102 204 1 262 -38 23 -52 25 -156
25 -99 0 -119 -3 -154 -23z"/>
<path d="M6404 5920 c-109 -55 -110 -209 -2 -270 69 -39 149 -17 202 54 15 20
21 43 21 81 0 117 -117 188 -221 135z"/>
<path d="M3635 5313 c-35 -9 -87 -55 -101 -89 -12 -28 -14 -317 -14 -1834 l0
-1800 -465 0 -465 0 -2 953 -3 952 -24 39 c-25 40 -86 75 -130 76 -40 0 -109
-39 -131 -74 -20 -33 -20 -45 -20 -990 l0 -956 -470 0 -470 0 0 133 c0 106 -4
139 -18 167 -55 110 -222 107 -273 -4 -15 -33 -19 -66 -19 -168 l0 -127 -408
-3 c-390 -3 -408 -4 -442 -24 -57 -33 -83 -79 -78 -142 5 -60 28 -97 79 -127
34 -20 52 -20 3494 -20 3442 0 3460 0 3494 20 47 28 72 65 78 117 7 58 -15
108 -63 144 l-37 29 -414 3 -413 3 0 126 c0 146 -16 197 -74 233 -70 43 -173
18 -216 -52 -17 -29 -20 -51 -20 -170 l0 -138 -470 0 -470 0 -2 964 -3 965
-35 36 c-19 19 -51 41 -72 47 -75 22 -165 -30 -187 -108 -8 -27 -11 -327 -11
-971 l0 -933 -465 0 -465 0 -2 1814 -3 1815 -21 27 c-41 56 -110 83 -169 67z"/>
<path d="M642 4830 c-102 -63 -96 -222 12 -271 52 -23 80 -23 132 0 108 49
116 200 14 268 -43 29 -112 31 -158 3z"/>
</g>
</svg>
