<?xml version="1.0" standalone="no"?>
<!DOCTYPE svg PUBLIC "-//W3C//DTD SVG 20010904//EN"
 "http://www.w3.org/TR/2001/REC-SVG-20010904/DTD/svg10.dtd">
<svg version="1.0" xmlns="http://www.w3.org/2000/svg"
 width="757.000000pt" height="589.000000pt" viewBox="0 0 757.000000 589.000000"
 preserveAspectRatio="xMidYMid meet">

<g transform="translate(0.000000,589.000000) scale(0.100000,-0.100000)"
fill="#000000" stroke="none">
<path d="M3625 5688 c-115 -12 -245 -52 -360 -108 -371 -184 -663 -583 -1115
-1520 -292 -607 -438 -886 -598 -1142 -252 -404 -525 -684 -806 -825 -83 -42
-274 -105 -369 -123 -80 -15 -125 -42 -149 -90 -48 -94 7 -201 112 -220 32 -6
73 0 178 25 633 153 1050 564 1571 1546 34 64 162 323 284 575 231 475 355
710 477 905 240 383 469 586 730 649 102 24 291 27 390 6 279 -61 516 -273
774 -696 119 -195 245 -433 425 -807 275 -571 389 -790 553 -1061 402 -668
807 -1003 1359 -1126 152 -34 220 -17 261 65 36 68 13 152 -51 194 -20 13 -72
30 -115 39 -511 103 -897 457 -1314 1207 -92 166 -156 293 -451 889 -375 760
-549 1039 -808 1291 -148 145 -274 224 -446 280 -161 53 -341 69 -532 47z"/>
<path d="M3699 4737 c-19 -12 -42 -38 -51 -57 -17 -33 -18 -142 -18 -1860 l0
-1825 23 -39 c58 -101 206 -101 264 0 l23 39 0 1825 c0 1758 -1 1827 -19 1860
-41 79 -149 106 -222 57z"/>
<path d="M2462 3030 c-18 -11 -41 -34 -52 -52 -20 -32 -20 -53 -20 -1013 0
-960 0 -981 20 -1013 61 -100 204 -96 264 8 21 35 21 47 24 995 l2 960 -22 45
c-43 85 -140 116 -216 70z"/>
<path d="M4950 3028 c-18 -13 -43 -36 -54 -51 -21 -28 -21 -32 -24 -985 -2
-698 0 -968 8 -997 37 -129 203 -157 277 -46 l23 34 0 981 c0 961 0 982 -20
1014 -44 71 -143 95 -210 50z"/>
<path d="M1209 1546 c-62 -42 -69 -76 -69 -322 0 -236 4 -257 59 -309 29 -27
39 -30 96 -30 73 0 109 20 137 76 16 29 18 65 18 269 0 217 -2 238 -20 268
-45 73 -150 96 -221 48z"/>
<path d="M6192 1550 c-18 -11 -41 -34 -52 -52 -18 -30 -20 -51 -20 -268 0
-210 2 -239 19 -270 27 -50 62 -73 123 -78 44 -3 59 0 87 20 75 51 76 53 79
309 3 218 2 233 -18 274 -12 25 -36 53 -54 65 -44 27 -120 27 -164 0z"/>
<path d="M315 555 c-128 -45 -141 -217 -22 -283 30 -16 231 -17 3492 -17 3442
0 3460 0 3494 20 56 33 76 68 76 135 0 67 -20 102 -76 135 -34 20 -54 20
-3479 22 -2953 2 -3451 0 -3485 -12z"/>
</g>
</svg>
