<?xml version="1.0" standalone="no"?>
<!DOCTYPE svg PUBLIC "-//W3C//DTD SVG 20010904//EN"
 "http://www.w3.org/TR/2001/REC-SVG-20010904/DTD/svg10.dtd">
<svg version="1.0" xmlns="http://www.w3.org/2000/svg"
 width="746.000000pt" height="746.000000pt" viewBox="0 0 746.000000 746.000000"
 preserveAspectRatio="xMidYMid meet">

<g transform="translate(0.000000,746.000000) scale(0.100000,-0.100000)"
fill="#000000" stroke="none">
<path d="M1035 6831 c-101 -26 -151 -47 -227 -92 -175 -104 -311 -288 -364
-494 -23 -91 -23 -264 0 -359 66 -275 270 -491 546 -577 64 -20 96 -24 220
-24 160 0 233 16 354 77 l59 30 27 -29 c15 -15 152 -172 306 -348 153 -175
343 -393 422 -482 l143 -164 -38 -15 c-21 -9 -161 -70 -311 -136 -151 -66
-275 -118 -276 -116 -2 2 -16 23 -33 48 -105 155 -264 269 -450 322 -110 31
-295 31 -406 0 -292 -83 -510 -316 -568 -608 -17 -88 -16 -241 4 -325 71 -299
298 -526 595 -595 86 -20 257 -20 347 1 190 44 369 166 472 320 19 30 41 55
48 55 23 0 610 -259 610 -269 0 -12 -843 -992 -865 -1006 -5 -3 -47 12 -92 35
-131 64 -227 84 -378 77 -98 -4 -142 -10 -205 -31 -266 -87 -466 -303 -532
-574 -22 -92 -21 -266 2 -357 120 -476 621 -730 1072 -543 215 89 393 295 454
525 26 96 30 269 10 361 -8 34 -12 64 -10 67 4 3 1631 385 1642 385 2 0 20
-24 39 -52 148 -222 384 -349 648 -349 129 0 225 19 323 64 217 100 366 267
437 492 35 110 39 293 10 410 -12 49 -32 109 -43 132 -13 27 -17 46 -11 52 11
11 675 446 705 461 19 11 27 6 78 -42 84 -81 131 -115 223 -157 123 -58 213
-74 366 -69 101 4 143 10 207 31 214 70 400 241 486 446 87 208 76 463 -27
662 -181 347 -586 509 -957 384 -97 -33 -216 -108 -291 -182 l-63 -63 -334
221 c-184 122 -349 231 -366 241 -18 11 -33 24 -33 28 0 5 9 30 21 57 56 131
75 331 45 474 -57 269 -256 490 -524 582 -122 42 -298 49 -422 18 -197 -49
-385 -181 -484 -338 -14 -24 -30 -43 -34 -43 -5 0 -132 29 -283 65 -151 35
-429 100 -619 145 -190 44 -434 101 -543 127 l-199 47 6 36 c31 169 30 262 -4
397 -60 231 -240 435 -467 528 -137 55 -333 70 -468 36z m340 -161 c257 -66
444 -296 462 -570 16 -246 -126 -489 -347 -597 -101 -49 -172 -65 -289 -64
-238 1 -446 132 -552 346 -110 222 -84 470 68 670 77 99 215 189 339 219 88
21 226 20 319 -4z m3089 -997 c275 -68 468 -318 468 -608 1 -249 -138 -466
-364 -570 -92 -42 -157 -55 -266 -55 -171 0 -310 58 -432 179 -128 127 -190
272 -190 446 0 174 58 313 185 441 166 166 371 224 599 167z m-2189 -74 c704
-164 1266 -297 1270 -301 3 -2 -3 -42 -11 -89 -19 -96 -14 -251 9 -334 l14
-51 -431 -189 c-237 -103 -438 -190 -446 -191 -9 -2 -188 195 -474 522 l-458
525 49 52 c27 29 61 73 76 98 l27 47 103 -25 c56 -13 179 -42 272 -64z m1384
-976 c21 -32 53 -71 70 -87 17 -17 31 -35 31 -42 0 -7 -77 -102 -171 -211 -94
-109 -219 -253 -277 -320 -58 -68 -108 -123 -112 -123 -9 0 -410 460 -410 470
0 5 801 363 827 369 1 1 20 -25 42 -56z m1513 -224 c134 -89 298 -197 364
-241 l122 -80 -24 -52 c-38 -84 -56 -165 -61 -283 -6 -124 10 -219 55 -332 24
-61 24 -65 8 -75 -9 -6 -131 -85 -269 -176 -139 -91 -297 -195 -351 -230 l-99
-64 -36 41 c-169 191 -458 288 -713 239 -80 -16 -176 -49 -223 -78 -16 -10
-37 -18 -45 -18 -13 0 -579 636 -588 661 -2 5 57 77 130 161 106 122 431 500
445 517 1 2 39 -13 83 -33 305 -139 637 -84 885 147 33 31 63 56 67 57 4 0
116 -72 250 -161z m-3760 -92 c96 -35 171 -82 242 -152 192 -190 239 -476 118
-725 -54 -111 -170 -225 -282 -279 -254 -122 -523 -78 -721 119 -192 191 -241
472 -124 715 80 165 228 287 409 336 101 27 264 21 358 -14z m5079 19 c220
-47 413 -233 469 -451 22 -88 26 -214 9 -297 -15 -72 -77 -202 -126 -264 -119
-149 -342 -246 -529 -231 -181 16 -360 112 -459 246 -85 117 -125 238 -125
383 0 177 56 315 180 439 41 41 100 89 130 106 52 30 156 67 210 76 57 10 179
6 241 -7z m-3816 -133 c224 -251 415 -477 411 -486 -2 -7 -56 -71 -118 -143
-62 -71 -162 -187 -222 -257 l-109 -126 -31 13 c-17 7 -170 73 -339 146 -246
107 -306 137 -301 149 12 31 33 167 34 217 0 48 -23 204 -35 235 -3 10 12 21
47 36 29 12 177 76 328 142 151 66 279 121 283 121 5 0 28 -21 52 -47z m751
-857 c121 -137 247 -281 281 -320 l61 -70 -49 -54 c-28 -30 -60 -72 -72 -93
-12 -21 -26 -39 -31 -39 -5 0 -192 80 -417 177 l-408 176 17 23 c48 63 388
453 393 451 4 -1 105 -114 225 -251z m1017 -351 c166 -35 341 -168 419 -320
106 -206 94 -445 -31 -638 -270 -413 -888 -365 -1096 87 -103 223 -60 494 107
680 90 100 211 166 363 199 45 10 174 6 238 -8z m-1268 -210 c345 -150 370
-163 369 -186 -1 -13 -7 -58 -14 -99 -14 -81 -8 -238 11 -304 8 -29 8 -41 -1
-46 -6 -4 -73 -21 -148 -38 -76 -17 -436 -101 -801 -187 -365 -85 -671 -155
-680 -155 -10 0 -28 19 -41 42 -13 24 -42 62 -63 85 -35 39 -38 45 -26 62 8
10 117 137 243 282 125 145 325 375 442 511 l215 247 62 -27 c34 -14 229 -99
432 -187z m-1825 -787 c30 -5 93 -28 139 -50 159 -76 285 -233 331 -414 70
-274 -63 -571 -316 -702 -99 -51 -183 -72 -291 -72 -112 0 -172 14 -282 67
-168 80 -286 229 -331 414 -11 46 -20 111 -20 144 1 199 110 406 272 516 153
105 302 134 498 97z"/>
</g>
</svg>
