<?xml version="1.0" standalone="no"?>
<!DOCTYPE svg PUBLIC "-//W3C//DTD SVG 20010904//EN"
 "http://www.w3.org/TR/2001/REC-SVG-20010904/DTD/svg10.dtd">
<svg version="1.0" xmlns="http://www.w3.org/2000/svg"
 width="746.000000pt" height="746.000000pt" viewBox="0 0 746.000000 746.000000"
 preserveAspectRatio="xMidYMid meet">

<g transform="translate(0.000000,746.000000) scale(0.100000,-0.100000)"
fill="#000000" stroke="none">
<path d="M3655 7291 c-262 -43 -472 -195 -584 -424 -68 -139 -85 -223 -78
-386 4 -101 10 -141 31 -201 15 -41 24 -80 22 -86 -2 -6 -109 -85 -238 -176
-236 -167 -916 -647 -1063 -750 l-81 -56 -64 50 c-214 166 -488 212 -743 122
-233 -81 -417 -280 -489 -530 -18 -64 -23 -103 -22 -204 0 -69 6 -145 13 -170
67 -242 207 -417 414 -519 138 -67 224 -85 381 -78 182 7 308 54 452 167 38
30 65 45 71 39 5 -5 121 -88 259 -184 137 -97 249 -180 249 -185 0 -5 -117
-92 -260 -193 l-260 -184 -47 39 c-145 120 -312 179 -507 179 -122 0 -227 -26
-350 -87 -78 -39 -108 -61 -185 -138 -50 -50 -106 -117 -125 -149 -76 -130
-119 -307 -108 -450 9 -110 29 -184 83 -295 95 -197 259 -333 485 -404 105
-32 300 -33 412 0 102 29 199 79 277 141 34 28 67 48 72 45 5 -3 118 -83 251
-177 133 -94 341 -240 462 -325 639 -450 665 -469 665 -483 0 -5 -6 -25 -14
-43 -57 -137 -61 -378 -9 -521 93 -258 279 -433 539 -507 117 -33 285 -30 409
7 263 78 453 267 536 535 31 98 34 299 6 399 -22 81 -62 173 -100 230 l-29 43
69 72 c71 73 184 193 333 351 47 49 121 128 166 175 44 47 116 123 160 170 44
47 132 139 195 206 63 66 240 253 393 416 l280 297 42 -25 c69 -40 196 -82
287 -94 203 -27 429 38 586 170 91 77 155 159 206 265 54 112 75 205 75 335 0
224 -86 422 -247 570 -170 155 -397 230 -613 202 -104 -14 -154 -29 -263 -80
l-78 -36 -28 30 c-15 16 -183 193 -372 394 -189 201 -380 403 -424 450 -100
106 -388 410 -603 637 l-164 173 21 29 c34 47 89 170 108 241 27 101 25 302
-5 399 -104 333 -383 552 -721 566 -47 2 -108 0 -136 -4z m265 -334 c73 -27
116 -54 174 -113 65 -66 102 -134 122 -223 83 -371 -295 -680 -644 -525 -304
134 -368 550 -118 770 130 115 308 149 466 91z m-641 -1045 c113 -90 267 -151
426 -167 130 -12 311 27 430 94 l51 29 424 -449 c234 -247 445 -471 469 -497
95 -102 461 -489 604 -639 l98 -102 -23 -35 c-13 -20 -25 -36 -28 -36 -6 0
-1075 376 -1156 406 l-41 16 4 86 c13 218 -82 451 -243 602 -158 147 -360 220
-579 207 -195 -11 -364 -88 -503 -229 -93 -95 -142 -173 -187 -304 -49 -141
-44 -410 11 -515 27 -54 60 -25 -351 -314 -115 -81 -218 -154 -227 -163 -16
-14 -20 -14 -35 0 -10 9 -137 100 -283 202 -146 103 -276 195 -289 204 l-25
18 30 90 c27 83 29 99 29 244 -1 142 -3 161 -28 233 -15 42 -27 81 -27 85 0 5
35 33 78 62 42 30 353 249 690 487 338 238 616 433 618 433 2 0 31 -21 63 -48z
m-2067 -803 c91 -19 169 -62 235 -131 97 -102 134 -192 134 -328 -1 -420 -516
-619 -804 -311 -171 183 -165 461 13 639 118 119 264 164 422 131z m2661 -4
c88 -23 152 -60 218 -126 142 -142 177 -354 88 -531 -119 -236 -398 -325 -636
-204 -79 39 -159 125 -202 215 -35 74 -36 79 -36 191 0 102 3 122 26 178 91
216 323 334 542 277z m1068 -1016 c266 -94 531 -187 588 -208 l104 -38 0 -124
0 -124 -589 -207 c-323 -115 -594 -208 -600 -208 -7 0 -23 17 -35 38 -60 97
-192 211 -312 268 -124 58 -221 77 -367 71 -185 -7 -304 -50 -445 -159 l-71
-54 -76 55 c-42 31 -160 115 -262 186 -102 72 -186 133 -186 136 0 3 35 30 78
59 42 30 155 110 251 178 96 68 180 126 188 129 7 3 39 -15 71 -39 142 -112
270 -159 452 -166 106 -4 139 -1 210 17 192 48 364 166 465 319 15 23 33 42
40 42 7 0 230 -77 496 -171z m1604 76 c57 -16 125 -57 183 -110 165 -148 191
-422 57 -604 -173 -234 -503 -262 -706 -58 -227 227 -162 607 127 744 113 54
217 62 339 28z m-3495 -1056 c0 -5 -11 -42 -25 -82 -117 -351 40 -743 372
-924 398 -217 909 -35 1082 385 45 108 56 168 56 300 l0 122 40 15 c106 39
1149 405 1154 405 3 0 16 -16 29 -36 l24 -36 -89 -92 c-157 -162 -719 -757
-1302 -1377 l-204 -217 -52 29 c-79 44 -185 78 -289 91 -169 21 -362 -26 -514
-126 -38 -25 -77 -55 -87 -66 -10 -11 -22 -20 -27 -20 -5 0 -55 33 -111 73
-91 66 -185 132 -326 231 -600 423 -947 669 -949 675 -1 5 9 44 24 87 49 143
43 409 -12 516 -8 15 -14 34 -14 42 0 8 137 111 305 229 l305 216 305 -215
c168 -119 305 -220 305 -225z m-1760 112 c121 -49 233 -169 270 -289 24 -77
28 -194 10 -262 -38 -143 -156 -272 -294 -321 -276 -97 -569 78 -618 368 -36
216 98 436 311 510 87 31 236 28 321 -6z m2601 13 c77 -23 118 -46 177 -99
112 -100 155 -199 155 -350 0 -80 -4 -112 -22 -157 -48 -123 -156 -231 -280
-280 -79 -31 -231 -31 -315 0 -187 69 -306 239 -306 439 0 211 128 383 335
449 57 18 191 17 256 -2z m29 -1877 c73 -27 116 -54 174 -113 65 -66 102 -134
122 -223 83 -371 -295 -680 -644 -525 -304 134 -368 550 -118 770 130 115 308
149 466 91z"/>
</g>
</svg>
