<?xml version="1.0" standalone="no"?>
<!DOCTYPE svg PUBLIC "-//W3C//DTD SVG 20010904//EN"
 "http://www.w3.org/TR/2001/REC-SVG-20010904/DTD/svg10.dtd">
<svg version="1.0" xmlns="http://www.w3.org/2000/svg"
 width="512.000000pt" height="512.000000pt" viewBox="0 0 512.000000 512.000000"
 preserveAspectRatio="xMidYMid meet">

<g transform="translate(0.000000,512.000000) scale(0.100000,-0.100000)"
fill="#000000" stroke="none">
<path d="M665 4935 l-25 -24 -1 -543 c0 -439 -3 -537 -13 -509 -29 80 -112
145 -201 158 -132 18 -265 -101 -265 -237 0 -19 108 -413 240 -877 l240 -843
0 -926 0 -925 25 -24 24 -25 1553 0 1553 0 342 343 343 342 0 498 0 497 138 0
c173 0 214 12 275 80 24 26 49 66 55 88 17 56 17 1048 0 1104 -6 22 -31 62
-55 88 -61 68 -102 80 -275 80 l-138 0 0 815 0 816 -25 24 -24 25 -1871 0
-1871 0 -24 -25z m3655 -895 l0 -760 -376 0 c-267 0 -389 -4 -418 -12 -55 -16
-138 -99 -154 -154 -17 -59 -17 -1049 0 -1108 16 -55 99 -138 154 -154 23 -7
85 -12 138 -12 l96 0 0 -175 c0 -173 0 -176 25 -200 16 -16 35 -25 56 -25 29
0 55 22 234 200 140 140 207 200 223 200 l22 0 0 -440 0 -440 -295 0 -296 0
-24 -25 -25 -24 0 -296 0 -295 -1085 0 c-1057 0 -1085 0 -1085 19 0 10 9 63
20 116 11 53 20 112 20 130 0 19 -169 626 -375 1350 l-375 1316 0 774 0 775
1760 0 1760 0 0 -760z m-3873 -198 c24 -18 78 -181 65 -193 -9 -8 -115 -39
-134 -39 -20 0 -64 165 -52 199 17 47 81 65 121 33z m532 -1803 l413 -1451
-12 -66 c-20 -114 -16 -110 -70 -57 -27 26 -56 62 -65 79 -16 30 -836 2898
-830 2904 4 4 127 40 140 41 6 1 197 -652 424 -1450z m3796 1056 l25 -24 0
-511 0 -511 -25 -24 -24 -25 -272 0 -272 0 -144 -142 -143 -142 0 117 c0 112
-1 119 -25 142 -23 24 -28 25 -175 25 -147 0 -152 1 -175 25 l-25 24 0 511 0
511 25 24 24 25 591 0 591 0 24 -25z m-3824 -2125 l143 -505 45 -50 c26 -27
55 -60 65 -72 l19 -23 -211 0 -212 0 0 582 c0 320 2 579 4 577 2 -2 68 -231
147 -509z m3249 -173 c0 -1 -81 -83 -180 -182 l-180 -180 0 183 0 182 180 0
c99 0 180 -1 180 -3z"/>
<path d="M2000 4480 l0 -80 560 0 560 0 0 80 0 80 -560 0 -560 0 0 -80z"/>
<path d="M3305 4295 l-25 -24 0 -416 0 -415 80 0 80 0 0 360 0 360 80 0 80 0
0 -360 0 -360 80 0 80 0 0 415 0 416 -25 24 c-24 25 -26 25 -215 25 -189 0
-191 0 -215 -25z"/>
<path d="M2665 4135 l-25 -24 0 -616 0 -615 -80 0 -80 0 0 535 0 536 -25 24
c-24 25 -26 25 -215 25 -189 0 -191 0 -215 -25 l-25 -24 0 -536 0 -535 -80 0
-80 0 0 455 0 456 -25 24 c-24 25 -26 25 -215 25 -189 0 -191 0 -215 -25 l-25
-24 0 -456 0 -455 -80 0 -80 0 0 -80 0 -80 1000 0 1000 0 0 80 0 80 -40 0 -40
0 0 615 0 616 -25 24 c-24 25 -26 25 -215 25 -189 0 -191 0 -215 -25z m295
-695 l0 -560 -80 0 -80 0 0 560 0 560 80 0 80 0 0 -560z m-640 -80 l0 -480
-80 0 -80 0 0 480 0 480 80 0 80 0 0 -480z m-640 -80 l0 -400 -80 0 -80 0 0
400 0 400 80 0 80 0 0 -400z"/>
<path d="M2245 2466 c-406 -80 -696 -408 -722 -816 -15 -240 78 -486 247 -661
296 -304 758 -355 1110 -124 l84 55 101 -100 c124 -122 143 -127 211 -56 196
205 324 517 324 792 0 56 -4 77 -19 95 -18 23 -27 24 -163 29 l-143 5 -3 30
c-2 17 -11 64 -22 105 -77 306 -319 548 -630 631 -98 26 -280 33 -375 15z
m379 -184 c120 -41 188 -84 281 -177 114 -114 184 -244 201 -374 l7 -51 -334
0 -334 1 -155 280 c-85 154 -156 287 -158 294 -3 14 67 41 146 55 26 5 95 7
154 5 85 -3 124 -9 192 -33z m-481 -384 l157 -283 -231 -230 -230 -230 -25 30
c-14 17 -40 62 -59 100 -112 230 -95 494 44 707 42 65 160 188 180 188 4 0 78
-127 164 -282z m1292 -435 c-13 -101 -52 -238 -93 -324 -36 -75 -129 -218
-142 -219 -3 0 -140 135 -305 300 l-300 300 423 0 423 0 -6 -57z m-807 -206
l222 -222 -51 -34 c-67 -44 -140 -76 -219 -98 -88 -24 -271 -24 -360 0 -76 21
-192 76 -235 111 l-30 25 220 220 c121 122 222 221 225 221 3 0 105 -100 228
-223z"/>
<path d="M4092 2601 l-240 -399 61 -38 c34 -20 65 -39 69 -41 4 -2 115 177
247 396 l240 400 -62 37 c-34 21 -65 39 -69 41 -4 2 -115 -176 -246 -396z"/>
<path d="M3920 2880 l0 -80 80 0 80 0 0 80 0 80 -80 0 -80 0 0 -80z"/>
<path d="M4240 2240 l0 -80 80 0 80 0 0 80 0 80 -80 0 -80 0 0 -80z"/>
</g>
</svg>
